<?xml version="1.0" encoding="utf-8"?>
<!-- Generator: Adobe Illustrator 16.0.0, SVG Export Plug-In . SVG Version: 6.00 Build 0)  -->
<!DOCTYPE svg PUBLIC "-//W3C//DTD SVG 1.1//EN" "http://www.w3.org/Graphics/SVG/1.1/DTD/svg11.dtd">
<svg version="1.1" id="Layer_1" xmlns="http://www.w3.org/2000/svg" xmlns:xlink="http://www.w3.org/1999/xlink" x="0px" y="0px"
	 width="48px" height="48px" viewBox="0 0 48 48" enable-background="new 0 0 48 48" xml:space="preserve">
<g id="XMLID_1_">
	<g>
		<path fill="#FFFFFF" d="M29.5,19.8L29.1,24h-3.4c0,5.4,0,12,0,12h-5c0,0,0-6.5,0-12h-2.4v-4.2h2.4V17c0-2,0.9-5,5-5l3.7,0v4.1
			c0,0-2.3,0-2.7,0s-1.1,0.2-1.1,1.2v2.5H29.5z"/>
		<path fill="#36609F" d="M48,7.5v33c0,4.2-3.4,7.5-7.5,7.5H7.4c-4.1,0-7.5-3.3-7.5-7.5v-33C-0.1,3.3,3.2,0,7.4,0h33.1
			C44.6,0,48,3.3,48,7.5z M29.1,24l0.4-4.2h-3.8v-2.5c0-0.9,0.6-1.2,1.1-1.2s2.7,0,2.7,0V12l-3.7,0c-4.1,0-5,3.1-5,5v2.7h-2.4V24
			h2.4c0,5.4,0,12,0,12h5c0,0,0-6.6,0-12H29.1z"/>
	</g>
	<g>
	</g>
</g>
</svg>
