<?xml version="1.0" encoding="utf-8"?>
<!-- Generator: Adobe Illustrator 16.0.0, SVG Export Plug-In . SVG Version: 6.00 Build 0)  -->
<!DOCTYPE svg PUBLIC "-//W3C//DTD SVG 1.1//EN" "http://www.w3.org/Graphics/SVG/1.1/DTD/svg11.dtd">
<svg version="1.1" id="Layer_1" xmlns="http://www.w3.org/2000/svg" xmlns:xlink="http://www.w3.org/1999/xlink" x="0px" y="0px"
	 width="56.7px" height="56.7px" viewBox="0 0 56.7 56.7" enable-background="new 0 0 56.7 56.7" xml:space="preserve">
<g id="XMLID_1_">
	<g>
		<polygon fill="#FFFFFF" points="50,7.8 50,16.2 40.5,16.2 40.4,6.6 48.7,6.5 50,6.5 		"/>
		<path fill="#FFFFFF" d="M51,22.6v23.3c0,3-2.4,5.5-5.4,5.5H11.1c-3,0-5.4-2.4-5.4-5.5V22.6h8.4c-0.7,1.8-1.1,3.8-1.1,5.8
			C12.9,37,19.8,44,28.3,44s15.4-7,15.4-15.6c0-2.1-0.4-4-1.1-5.8H51z"/>
		<path fill="#FFFFFF" d="M36.4,22.6c1.2,1.6,1.9,3.6,1.9,5.8c0,5.5-4.5,10-9.9,10c-5.5,0-9.9-4.5-9.9-10c0-2.2,0.7-4.2,1.9-5.8
			c1.8-2.5,4.7-4.2,8-4.2C31.6,18.4,34.6,20.1,36.4,22.6z"/>
		<path d="M56.5,22.6v23.3c0,6.1-4.9,11-10.9,11H11.1c-6,0-10.9-4.9-10.9-11V22.6V11C0.2,4.9,5,0,11.1,0h34.6c6,0,10.9,4.9,10.9,11
			V22.6z M51,45.8V22.6h-8.4c0.7,1.8,1.1,3.8,1.1,5.8C43.7,37,36.8,44,28.3,44s-15.4-7-15.4-15.6c0-2.1,0.4-4,1.1-5.8H5.7v23.3
			c0,3,2.4,5.5,5.4,5.5h34.6C48.6,51.3,51,48.9,51,45.8z M50,16.2V7.8V6.5l-1.3,0l-8.3,0l0,9.6L50,16.2z M38.3,28.4
			c0-2.2-0.7-4.2-1.9-5.8c-1.8-2.5-4.7-4.2-8-4.2c-3.3,0-6.2,1.6-8,4.2c-1.2,1.6-1.9,3.6-1.9,5.8c0,5.5,4.5,10,9.9,10
			C33.8,38.4,38.3,33.9,38.3,28.4z"/>
	</g>
	<g>
	</g>
</g>
</svg>
