<?xml version="1.0" encoding="utf-8"?>
<!-- Generator: Adobe Illustrator 16.0.0, SVG Export Plug-In . SVG Version: 6.00 Build 0)  -->
<!DOCTYPE svg PUBLIC "-//W3C//DTD SVG 1.1//EN" "http://www.w3.org/Graphics/SVG/1.1/DTD/svg11.dtd">
<svg version="1.1" id="Layer_1" xmlns="http://www.w3.org/2000/svg" xmlns:xlink="http://www.w3.org/1999/xlink" x="0px" y="0px"
	 width="48px" height="48px" viewBox="0 0 48 48" enable-background="new 0 0 48 48" xml:space="preserve">
<g id="XMLID_1_">
	<g>
		<path fill="#FFFFFF" d="M19.2,24.5c-0.1,0.3-0.2,0.9-0.3,1.1c-0.1,0.4-0.4,0.5-0.7,0.3c-1.9-0.8-2.8-2.9-2.8-5.2
			c0-3.9,3.3-8.6,9.9-8.6c5.3,0,8.8,3.8,8.8,7.9c0,5.4-3,9.4-7.5,9.4c-1.5,0-2.9-0.8-3.4-1.7c0,0-0.8,3.2-1,3.8
			c-0.6,2.2-2.4,4.3-2.5,4.5c-0.1,0.1-0.3,0.1-0.3-0.1c0-0.3-0.5-3,0-5.2c0.2-0.8,1-4.3,1.5-6.2c0.2-0.8,0.3-1.3,0.3-1.3
			s-0.4-0.9-0.4-2.2c0-2,1.2-3.6,2.7-3.6c1.3,0,1.9,0.9,1.9,2.1c0,1.3-0.8,3.1-1.2,4.9c-0.4,1.5,0.7,2.6,2.2,2.6
			c2.6,0,4.4-3.3,4.4-7.3c0-3-2-5.3-5.7-5.3c-4.2,0-6.8,3.1-6.8,6.6c0,1.2,0.4,2,0.9,2.7c0.2,0.3,0.3,0.4,0.2,0.6
			C19.2,24.4,19.2,24.4,19.2,24.5z"/>
		<path fill="#CA2027" d="M18,21c0-3.5,2.6-6.6,6.8-6.6c3.7,0,5.7,2.3,5.7,5.3c0,4-1.8,7.3-4.4,7.3c-1.4,0-2.5-1.2-2.2-2.6
			c0.4-1.7,1.2-3.6,1.2-4.9c0-1.1-0.6-2.1-1.9-2.1c-1.5,0-2.7,1.5-2.7,3.6c0,1.3,0.4,2.2,0.4,2.2s-0.1,0.5-0.3,1.3l-1.7-0.1
			c0-0.2,0-0.4-0.2-0.6C18.4,23.1,18,22.2,18,21z"/>
		<path fill="#CA2027" d="M18.9,25.6c0.1-0.2,0.2-0.8,0.3-1.1c0-0.1,0-0.1,0-0.2l1.7,0.1c-0.5,1.9-1.3,5.4-1.5,6.2
			c-0.5,2.2-0.1,5,0,5.2c0,0.2,0.2,0.2,0.3,0.1c0.1-0.2,1.9-2.3,2.5-4.5c0.2-0.6,1-3.8,1-3.8c0.5,0.9,1.9,1.7,3.4,1.7
			c4.4,0,7.5-4,7.5-9.4c0-4.1-3.5-7.9-8.8-7.9c-6.6,0-9.9,4.7-9.9,8.6c0,2.4,0.9,4.5,2.8,5.2C18.5,26.1,18.8,25.9,18.9,25.6z
			 M48.1,7.6v32.9c0,4.1-3.4,7.5-7.5,7.5H7.5C3.4,48,0,44.7,0,40.5V7.6c0-4.1,3.4-7.5,7.5-7.5h33.1C44.7,0.1,48.1,3.5,48.1,7.6z"/>
	</g>
	<g>
	</g>
</g>
</svg>
