<?xml version="1.0" encoding="utf-8"?>
<!-- Generator: Adobe Illustrator 16.0.0, SVG Export Plug-In . SVG Version: 6.00 Build 0)  -->
<!DOCTYPE svg PUBLIC "-//W3C//DTD SVG 1.1//EN" "http://www.w3.org/Graphics/SVG/1.1/DTD/svg11.dtd">
<svg version="1.1" id="Layer_1" xmlns="http://www.w3.org/2000/svg" xmlns:xlink="http://www.w3.org/1999/xlink" x="0px" y="0px"
	 width="48px" height="48px" viewBox="0 0 48 48" enable-background="new 0 0 48 48" xml:space="preserve">
<g id="XMLID_1_">
	<g>
		<path fill="#FFFFFF" d="M17.4,18.7c2.9,0,5.3,2.4,5.3,5.3s-2.4,5.3-5.3,5.3c-3,0-5.3-2.4-5.3-5.3S14.4,18.7,17.4,18.7z"/>
		<path fill="#FFFFFF" d="M30.7,18.7c2.9,0,5.3,2.4,5.3,5.3s-2.4,5.3-5.3,5.3c-3,0-5.3-2.4-5.3-5.3S27.8,18.7,30.7,18.7z"/>
		<path fill="#EC338E" d="M22.7,24c0-3-2.4-5.3-5.3-5.3c-3,0-5.3,2.4-5.3,5.3s2.4,5.3,5.3,5.3C20.3,29.3,22.7,27,22.7,24z M25.4,24
			c0,3,2.4,5.3,5.3,5.3c2.9,0,5.3-2.4,5.3-5.3s-2.4-5.3-5.3-5.3C27.8,18.7,25.4,21,25.4,24z M48.1,7.5v33.1c0,4.2-3.4,7.5-7.5,7.5
			H7.5c-4.1,0-7.5-3.4-7.5-7.5V7.5c0-4.2,3.4-7.5,7.5-7.5h33.1C44.7-0.1,48.1,3.3,48.1,7.5z"/>
	</g>
	<g>
	</g>
</g>
</svg>
