<?xml version="1.0" encoding="utf-8"?>
<!-- Generator: Adobe Illustrator 16.0.0, SVG Export Plug-In . SVG Version: 6.00 Build 0)  -->
<!DOCTYPE svg PUBLIC "-//W3C//DTD SVG 1.1//EN" "http://www.w3.org/Graphics/SVG/1.1/DTD/svg11.dtd">
<svg version="1.1" id="Layer_1" xmlns="http://www.w3.org/2000/svg" xmlns:xlink="http://www.w3.org/1999/xlink" x="0px" y="0px"
	 width="48px" height="48px" viewBox="0 0 48 48" enable-background="new 0 0 48 48" xml:space="preserve">
<g id="XMLID_1_">
	<g>
		<path fill="#2AA9E0" d="M48,7.6v33c0,4.1-3.4,7.5-7.5,7.5h-33c-4.2,0-7.5-3.3-7.5-7.5v-33c0-4.1,3.4-7.5,7.5-7.5h33
			C44.6,0.1,48,3.5,48,7.6z M33.5,19.2c1-0.7,1.8-1.6,2.5-2.6c-0.9,0.4-1.8,0.7-2.8,0.8c1-0.6,1.8-1.6,2.2-2.7c-1,0.6-2,1-3.1,1.2
			c-0.9-1-2.2-1.6-3.6-1.6c-2.7,0-4.9,2.2-4.9,4.9c0,0.4,0.1,0.8,0.1,1.1c-4.1-0.2-7.7-2.2-10.2-5.1C13.2,16,13,16.8,13,17.7
			c0,1.7,0.9,3.2,2.2,4.1c-0.8,0-1.6-0.3-2.2-0.6c0,0,0,0,0,0.1c0,2.4,1.7,4.4,4,4.8c-0.4,0.1-0.9,0.2-1.3,0.2c-0.3,0-0.6,0-0.9-0.1
			c0.6,2,2.4,3.4,4.6,3.4c-1.7,1.3-3.8,2.1-6.1,2.1c-0.4,0-0.8,0-1.2-0.1c2.2,1.4,4.8,2.2,7.5,2.2c9.1,0,14-7.5,14-14
			C33.5,19.6,33.5,19.4,33.5,19.2z"/>
		<path fill="#FFFFFF" d="M36,16.6c-0.7,1-1.5,1.9-2.5,2.6c0,0.2,0,0.4,0,0.6c0,6.5-5,14-14,14c-2.8,0-5.4-0.8-7.5-2.2
			c0.4,0,0.8,0.1,1.2,0.1c2.3,0,4.4-0.8,6.1-2.1c-2.2,0-4-1.5-4.6-3.4c0.3,0.1,0.6,0.1,0.9,0.1c0.5,0,0.9-0.1,1.3-0.2
			c-2.3-0.5-4-2.4-4-4.8c0,0,0,0,0-0.1c0.7,0.4,1.4,0.6,2.2,0.6c-1.3-0.9-2.2-2.4-2.2-4.1c0-0.9,0.2-1.8,0.7-2.5
			c2.4,3,6.1,4.9,10.2,5.1c-0.1-0.4-0.1-0.7-0.1-1.1c0-2.7,2.2-4.9,4.9-4.9c1.4,0,2.7,0.6,3.6,1.6c1.1-0.2,2.2-0.6,3.1-1.2
			c-0.4,1.1-1.2,2.1-2.2,2.7C34.2,17.3,35.1,17,36,16.6z"/>
	</g>
	<g>
	</g>
</g>
</svg>
